<?xml version="1.0" standalone="no"?>
<!DOCTYPE svg PUBLIC "-//W3C//DTD SVG 20010904//EN"
 "http://www.w3.org/TR/2001/REC-SVG-20010904/DTD/svg10.dtd">
<svg version="1.0" xmlns="http://www.w3.org/2000/svg"
 width="512.000000pt" height="512.000000pt" viewBox="0 0 512.000000 512.000000"
 preserveAspectRatio="xMidYMid meet">
<metadata>
Created by potrace 1.11, written by Peter Selinger 2001-2013
</metadata>
<g transform="translate(0.000000,512.000000) scale(0.100000,-0.100000)"
fill="#000000" stroke="none">
<path d="M2427 5060 c-161 -26 -443 -125 -546 -193 -20 -13 -65 -42 -100 -65
-88 -55 -221 -190 -287 -288 -41 -62 -65 -87 -101 -107 -74 -40 -254 -198
-295 -258 -58 -86 -85 -214 -59 -282 8 -21 2 -32 -47 -88 -32 -35 -92 -99
-136 -142 -43 -44 -91 -104 -107 -134 -26 -49 -29 -65 -29 -144 l0 -89 -43
-53 c-151 -185 -197 -293 -197 -460 0 -91 2 -102 34 -166 19 -37 47 -82 61
-100 26 -30 26 -33 12 -64 -31 -67 -50 -175 -44 -250 8 -96 48 -231 103 -344
49 -101 136 -205 206 -245 l39 -23 4 -81 c3 -44 14 -112 26 -150 31 -102 121
-282 167 -334 41 -47 134 -107 235 -153 47 -21 57 -30 57 -51 0 -26 53 -97
120 -161 23 -22 70 -74 105 -116 101 -120 238 -205 450 -281 474 -170 465
-168 655 -149 143 14 288 44 404 83 172 57 379 176 490 281 31 28 67 60 81 70
19 14 25 26 23 45 -3 22 5 30 63 61 81 44 143 92 233 179 100 98 129 144 261
412 49 100 56 120 51 156 -4 34 -1 45 16 60 68 62 168 255 188 365 6 30 12
123 14 207 4 151 4 154 35 204 52 84 73 160 73 273 1 131 -23 198 -96 270 -28
28 -61 57 -74 65 -23 15 -23 15 -6 60 22 60 30 237 15 339 -7 45 -23 106 -37
137 -24 54 -123 194 -158 223 -32 27 -37 47 -20 87 32 76 -1 187 -87 299 -22
27 -61 79 -88 115 -56 77 -173 164 -271 202 -62 24 -69 30 -133 119 -74 103
-182 218 -237 254 -20 12 -89 70 -153 128 -179 162 -253 206 -422 252 -82 22
-127 27 -245 30 -80 2 -171 0 -203 -5z m293 -106 c74 -8 194 -40 257 -69 65
-30 114 -63 172 -117 86 -81 196 -175 241 -205 25 -17 68 -55 97 -85 55 -56
163 -205 163 -224 0 -29 -93 -39 -350 -39 -329 0 -683 25 -920 64 -63 11 -151
22 -194 26 -89 7 -254 44 -334 75 -29 11 -96 32 -150 46 -53 14 -101 29 -105
33 -11 11 57 95 139 170 172 158 457 286 724 325 90 14 135 13 260 0z m-1072
-629 c57 -14 133 -37 169 -50 88 -34 266 -72 388 -84 55 -6 125 -15 155 -21
185 -37 656 -69 965 -67 252 3 263 4 360 31 55 16 110 29 123 28 47 0 177
-107 227 -186 11 -17 39 -56 62 -87 49 -64 73 -116 73 -159 0 -27 -7 -33 -70
-65 -172 -86 -437 -122 -970 -129 -383 -5 -495 6 -885 83 -55 11 -163 27 -240
35 -344 39 -756 142 -830 207 -31 28 -35 37 -35 80 0 77 36 143 121 224 114
108 239 196 269 189 8 -2 61 -15 118 -29z m-388 -624 c191 -64 438 -118 695
-151 88 -12 230 -34 315 -51 317 -61 422 -73 630 -73 319 -1 729 10 825 23
170 22 347 67 403 102 20 12 25 10 61 -25 56 -55 145 -183 165 -236 25 -69 34
-166 26 -265 -13 -150 -15 -152 -199 -210 -232 -73 -399 -95 -746 -102 -294
-5 -441 2 -730 37 -93 12 -217 25 -275 31 -133 13 -301 40 -455 74 -153 34
-228 50 -339 70 -49 10 -121 28 -160 42 -39 13 -133 37 -209 53 -125 26 -150
35 -244 87 -165 92 -193 129 -193 255 0 53 5 80 18 99 9 14 73 85 142 158 83
88 130 130 140 127 8 -3 67 -23 130 -45z m-442 -592 c26 -23 98 -70 160 -104
104 -58 123 -65 235 -85 67 -12 165 -37 217 -55 52 -18 136 -40 185 -49 98
-19 170 -34 340 -71 129 -29 377 -66 595 -90 85 -9 205 -23 265 -31 538 -69
1072 -33 1450 100 81 28 103 32 115 22 8 -6 28 -18 43 -26 115 -58 151 -253
75 -409 -79 -163 -191 -221 -462 -242 -90 -7 -409 -9 -891 -6 -635 3 -765 7
-845 21 -123 21 -453 99 -600 141 -231 67 -419 115 -580 149 -153 32 -244 63
-375 127 -60 29 -81 48 -119 113 -34 56 -36 65 -36 146 0 121 19 177 101 293
39 53 72 97 75 97 3 0 27 -19 52 -41z m-92 -723 c114 -56 221 -90 377 -121
170 -33 237 -50 537 -138 190 -55 510 -131 645 -153 189 -31 1605 -41 1835
-14 99 12 221 47 279 81 l34 20 -6 -113 c-8 -162 -58 -301 -148 -404 -67 -77
-189 -184 -241 -210 -60 -31 -78 -62 -54 -99 26 -39 83 -30 155 27 13 10 26
16 28 14 6 -5 -43 -104 -61 -126 -7 -8 -30 -51 -51 -95 -31 -65 -56 -97 -127
-168 -90 -88 -128 -116 -272 -200 -106 -62 -148 -73 -377 -98 -251 -28 -490
-35 -632 -19 -359 39 -649 104 -814 181 -59 28 -153 68 -208 89 -224 86 -395
170 -445 220 -48 48 -133 222 -160 328 -12 46 -19 86 -16 89 2 3 19 -5 35 -17
49 -34 263 -128 343 -149 83 -23 265 -59 618 -124 352 -65 559 -89 976 -113
113 -7 236 7 261 28 21 17 15 44 -14 64 -24 16 -48 19 -158 20 -182 1 -446 20
-605 44 -74 11 -152 20 -172 20 -20 0 -126 18 -235 39 -109 22 -220 42 -248
46 -292 37 -617 147 -749 253 -66 53 -66 53 -121 78 -56 27 -145 118 -182 189
-49 94 -94 241 -100 325 -4 59 -1 90 16 148 12 39 23 72 25 72 2 0 16 -6 32
-14z m904 -1666 c25 -10 96 -41 158 -69 166 -76 435 -139 791 -186 162 -21
436 -19 645 4 94 11 191 21 215 23 l43 4 -38 -33 c-52 -44 -292 -165 -379
-191 -143 -43 -303 -73 -421 -79 -134 -6 -106 -14 -487 123 -286 103 -338 135
-507 315 -117 125 -118 127 -20 89z"/>
<path d="M3577 1799 c-47 -25 -110 -89 -142 -143 -13 -23 -38 -90 -56 -151
-28 -94 -32 -126 -33 -222 l-1 -112 38 -39 c21 -22 76 -58 122 -81 80 -41 85
-42 151 -35 72 7 151 38 192 77 67 62 122 217 129 364 5 92 3 106 -16 144 -27
51 -106 141 -163 187 -38 29 -46 32 -112 32 -51 -1 -82 -6 -109 -21z"/>
</g>
</svg>
